PathFileType	4	(X/Y/Z)	C:/Users/beibeiliu/ov580/test_trc/User3\out8_training_dense_right.trc
DataRate	CameraRate	NumFrames	NumMarkers	Units	OrigDataRate	OrigDataStartFrame	OrigNumFrames
120	120	12	19	mm	120	251	500
Frame#	Time	ThumbCMC			ThumbMCP			ThumbIP			ThumbTip			IndexMCP			IndexPIP			IndexTip			MiddleMCP			MiddlePIP			MiddleTip			RingMCP			RingPIP			RingTip			PinkyMCP			PinkyPIP			PinkyTip			BackHand1			BackHand2			BackHand3	
		X0	Y0	Z0	X1	Y1	Z1	X2	Y2	Z2	X3	Y3	Z3	X4	Y4	Z4	X5	Y5	Z5	X6	Y6	Z6	X7	Y7	Z7	X8	Y8	Z8	X9	Y9	Z9	X10	Y10	Z10	X11	Y11	Z11	X12	Y12	Z12	X13	Y13	Z13	X14	Y14	Z14	X15	Y15	Z15	X16	Y16	Z16	X17	Y17	Z17	X18	Y18	Z18	
250	2.08333	226.891	19.4066	36.0101	239.401	31.0047	14.0205	247.312	38.8964	-14.8543	245.654	46.684	-35.6291	205.898	32.7371	-34.4922	194.478	57.8901	-24.8354	201.648	46.1235	5.74936	183.664	26.9419	-31.1909	175.444	54.5818	-15.1702	185.428	31.4564	15.2672	164.862	19.3878	-24.2623	158.382	46.9611	-12.5992	171.799	34.6728	18.9431	153.923	2.83578	-20.6785	147.112	16.0794	-40.7725	141.666	35.0277	-54.6322	181.758	-20.0601	16.9431	182.349	-21.2887	44.973	212.535	-9.97521	25.0404	
251	2.09167	228.353	18.9923	38.0932	235.487	29.4527	14.7201	242.732	38.1579	-12.5722	243.221	45.0178	-38.7935	209.086	26.7539	-32.2009	200.19	58.6168	-23.3353	201.675	40.8277	7.14971	187.702	25.4814	-31.9691	178.212	53.8131	-15.619	187.724	33.2961	15.5801	168.664	20.8142	-25.3156	158.754	46.7709	-12.1666	173.106	35.1213	17.8511	153.586	1.21434	-21.446	150.023	16.1373	-40.3045	145.483	32.9168	-57.4095	181.828	-21.341	14.1394	178.226	-22.3665	45.0519	211.425	-10.7674	26.2566	
252	2.1	226.083	21.2058	38.3228	236.079	31.0865	10.5795	239.456	40.627	-15.8176	234.123	47.8405	-35.9349	204.819	25.3357	-33.2118	196.823	57.4143	-23.8769	203.619	42.3058	7.24386	186.566	25.9827	-32.3577	175.965	52.9456	-19.1047	187.195	29.4526	14.4782	169.237	20.5761	-25.335	159.457	46.8653	-12.9219	172.309	34.8428	18.2946	159.611	2.69636	-21.8219	150.391	14.5671	-40.7716	144.707	31.9934	-57.007	179.427	-22.4227	15.4501	177.911	-23.7514	46.1742	209.788	-12.088	27.8098	
253	2.10833	225.657	21.6207	35.7669	232.026	34.3976	13.6926	235.081	44.1447	-20.2823	229.644	51.6211	-40.7317	209.211	28.154	-33.9252	198.468	58.4243	-25.1882	202.757	46.9259	4.80258	189.124	26.5687	-32.408	176.185	53.2842	-15.8842	187.584	30.1154	15.041	167.876	20.7489	-27.226	161.584	45.8167	-14.6704	172.577	35.2146	16.9079	157.342	1.29722	-22.4473	154.523	12.9857	-40.4208	148.108	31.0869	-58.1275	179.942	-20.1131	13.5338	183.03	-24.1073	45.0483	210.619	-12.3206	28.229	
254	2.11667	223.06	22.5354	38.7396	229.959	36.0895	11.8449	230.409	44.933	-16.9993	220.345	50.4436	-39.3775	205.683	29.2146	-35.224	195.872	55.7669	-26.0859	204.151	42.1222	7.14134	189.441	25.2838	-32.0123	178.101	53.0106	-16.0476	187.286	27.3087	14.6915	169.704	19.9858	-27.3298	162.35	46.5395	-13.246	173.689	32.6554	16.7957	157.675	-1.21595	-23.7748	158.592	15.9025	-43.2811	151.669	32.8472	-55.6222	179.754	-22.7481	16.4401	184.501	-23.7635	43.0535	213.493	-10.6955	29.6599	
255	2.125	225.715	23.5764	40.4813	232.501	37.2658	9.74047	233.479	49.4544	-18.2755	222.852	55.4683	-41.5292	209.808	26.4981	-32.3688	198.807	57.7089	-23.8453	203.721	41.2615	8.07497	188.64	26.8085	-32.126	178.661	52.4236	-15.6903	187.171	31.4003	14.417	171.528	17.4525	-25.5936	162.362	46.0513	-10.8037	173.533	33.9022	15.3919	158.885	-1.68414	-23.1684	156.994	13.9932	-42.5487	153.623	32.2396	-55.3665	181.819	-20.9115	13.7087	183.635	-23.8737	47.4644	215.124	-9.08271	28.2398	
256	2.13333	225.111	21.7568	35.5355	231.339	38.3833	10.6702	231.035	49.3588	-17.3334	220.748	55.8375	-35.8858	207.503	27.0828	-33.2675	199.808	56.9347	-25.5029	202.929	43.0721	6.58983	187.394	22.4658	-31.7724	178.144	51.3072	-16.2594	189.693	29.6142	15.9536	174.438	21.1116	-28.5928	161.287	42.9768	-14.3111	173.439	33.7714	15.3496	160.666	-0.765794	-25.816	159.308	15.2699	-43.0912	152.965	29.7443	-56.1457	185.247	-21.5753	14.9189	185.337	-24.9813	44.2892	212.654	-13.3414	30.526	
257	2.14167	228.171	23.0308	38.7936	230.663	38.49	12.1718	231.104	52.8391	-14.9269	218.241	57.367	-36.9851	210.823	28.936	-33.736	196.918	55.2197	-21.7889	202.735	42.5564	6.24042	191.332	25.6183	-33.0868	181.167	51.8412	-17.437	188.365	29.2925	15.5555	174.598	19.4707	-28.2539	163.748	44.2831	-13.2101	174.918	33.7904	15.1055	160.659	-0.134232	-23.5244	157.393	12.78	-41.0262	151.801	32.8493	-58.5206	182.993	-21.4737	12.3543	183.795	-25.7111	43.9768	213.46	-12.0736	30.2026	
258	2.15	226.047	23.6707	39.345	234.734	42.1776	9.97764	230.246	54.0841	-15.5878	217.203	61.3164	-37.9683	209.417	26.0912	-33.4473	197.781	56.6768	-22.101	200.778	44.7221	5.0932	187.674	25.0768	-31.4126	182.606	54.0386	-12.558	189.166	28.2481	16.3885	169.663	21.4335	-28.2189	164.34	46.3197	-11.445	175.531	30.3081	17.3616	162.137	0.607693	-19.8108	154.991	14.4582	-42.8031	154.163	34.1117	-57.7604	185.151	-22.5142	14.2494	180.77	-24.7426	43.4818	216.201	-12.314	28.2763	
259	2.15833	227.385	23.4819	38.8271	230.96	40.7015	11.489	229.329	53.4491	-14.5085	218.251	62.2611	-34.5421	212.01	30.1533	-33.7102	201.111	57.5078	-22.464	204.992	43.6131	8.26147	186.978	28.7938	-31.149	184.222	54.1018	-12.6341	186.199	30.7091	17.006	175.035	20.2393	-25.6683	164.569	45.1361	-12.6423	176.271	34.845	17.6841	160.476	0.318205	-23.8356	157.046	16.8494	-43.4137	153.713	31.8475	-56.9882	182.848	-22.7108	12.3693	180.459	-23.6842	47.2583	217.49	-9.88878	31.3595	
260	2.16667	228.162	25.2286	39.9426	232.355	41.6484	15.0035	232.554	55.3795	-14.6854	221.536	64.206	-37.5398	208.447	29.6493	-34.0321	198.285	56.8657	-25.052	204.138	43.7444	7.22707	190.055	25.2876	-30.1575	181.96	54.672	-14.9024	189.054	31.7182	17.2574	174.51	22.9509	-25.146	166.843	48.5454	-9.58239	176.411	34.4517	20.1509	160.952	2.14312	-24.6152	157.173	15.8173	-41.0823	152.936	33.213	-56.1987	182.378	-19.922	16.2621	183.089	-22.1049	46.6134	214.722	-11.3001	26.9582	
261	2.175	226.086	23.5526	40.0724	232.797	41.1394	10.5647	229.564	52.7233	-18.4672	217.403	59.2808	-37.5811	210.679	29.0298	-33.1547	203.437	59.4044	-25.7902	203.022	45.743	6.30796	191.495	28.9797	-32.0348	180.462	53.3652	-14.3707	190.622	29.8191	17.7967	173.002	24.2078	-25.948	164.179	47.1079	-11.0691	177.712	34.2872	20.7069	162.27	2.18196	-19.4387	157.168	16.0582	-41.4505	157.122	36.5647	-57.7905	183.481	-20.4725	13.6442	185.915	-20.9519	45.4326	215.389	-9.27623	29.1349	
